# File created by Blade
# Date/Time:  Wed Jan 21 19:09:01 2015
#---------------------------------------------------------
:version 1.10
:name HOM
:units
  mass 1.0
  length 1.000000
  angle deg
:documentation
     Acclaim Skeleton File
:root
   axis xyz
   order TX TY TZ RX RY RZ
   position 0.000000 0.000000 0.000000
   orientation 0 0 0
:bonedata
   begin
      id 1
      name RightUpLeg_dum
      direction -1.000000 0.000000 0.000000
      length 3.693983
      axis 0.0 0.0 0.0 xyz
   end
   begin
      id 2
      name LeftUpLeg_dum
      direction 1.000000 0.000000 0.000000
      length 3.693983
      axis 0.0 0.0 0.0 xyz
   end
   begin
      id 3
      name Spine_dum
      direction 0.000000 1.000000 0.000000
      length 2.392956
      axis 0.0 0.0 0.0 xyz
   end
   begin
      id 4
      name RightUpLeg
      direction 0.000000 -1.000000 0.000000
      length 15.795667
      axis 0.0 0.0 0.0 xyz
      dof rx ry rz
   end
   begin
      id 5
      name RightLeg
      direction 0.000000 -1.000000 0.000000
      length 14.766989
      axis 0.0 0.0 0.0 xyz
      dof rx ry rz
   end
   begin
      id 6
      name RightFoot
      direction 0.000000 -0.258819 0.965926
      length 4.962790
      axis 15.0 0.0 0.0 xyz
      dof rx ry rz
   end
   begin
      id 7
      name RightToeBase
      direction 0.000000 0.000000 1.000000
      length 2.952750
      axis 0.0 0.0 0.0 xyz
      dof rx ry rz
   end
   begin
      id 8
      name LeftUpLeg
      direction 0.000000 -1.000000 0.000000
      length 15.795667
      axis 0.0 0.0 0.0 xyz
      dof rx ry rz
   end
   begin
      id 9
      name LeftLeg
      direction 0.000000 -1.000000 0.000000
      length 14.766989
      axis 0.0 0.0 0.0 xyz
      dof rx ry rz
   end
   begin
      id 10
      name LeftFoot
      direction 0.000000 -0.258819 0.965926
      length 4.962790
      axis 15.0 0.0 0.0 xyz
      dof rx ry rz
   end
   begin
      id 11
      name LeftToeBase
      direction 0.000000 0.000000 1.000000
      length 2.952750
      axis 0.0 0.0 0.0 xyz
      dof rx ry rz
   end
   begin
      id 12
      name Spine
      direction 0.000000 1.000000 0.000000
      length 0.000000
      axis 0.0 0.0 0.0 xyz
      dof rx ry rz
   end
   begin
      id 13
      name Spine_dum1
      direction 0.000000 1.000000 0.000000
      length 13.207411
      axis 0.0 0.0 0.0 xyz
   end
   begin
      id 14
      name Spine_dum2
      direction 0.000000 1.000000 0.000000
      length 13.207411
      axis 0.0 0.0 0.0 xyz
   end
   begin
      id 15
      name Spine_dum3
      direction 0.000000 1.000000 0.000000
      length 19.250100
      axis 0.0 0.0 0.0 xyz
   end
   begin
      id 16
      name RightShoulder
      direction -1.000000 0.000000 0.000000
      length 8.140465
      axis 0.0 0.0 90.0 xyz
      dof rx ry rz
   end
   begin
      id 17
      name RightArm
      direction -1.000000 0.000000 0.000000
      length 10.649840
      axis 0.0 0.0 90.0 xyz
      dof rx ry rz
   end
   begin
      id 18
      name RightForeArm
      direction -1.000000 0.000000 0.000000
      length 8.304624
      axis 0.0 0.0 90.0 xyz
      dof ry rz rx
   end
   begin
      id 19
      name RightHand
      direction -1.000000 0.000000 0.000000
      length 0.000000
      axis 0.0 0.0 90.0 xyz
      dof rx ry rz
   end
   begin
      id 20
      name RightHand_dum1
      direction -1.000000 0.000000 0.000000
      length 3.937000
      axis 0.0 0.0 90.0 xyz
   end
   begin
      id 21
      name RightHand_dum2
      direction 0.000000 0.000000 0.000000
      length 0.000000
      axis 0.0 0.0 90.0 xyz
   end
   begin
      id 22
      name RightHandThumb1
      direction 0.000000 0.000000 1.000000
      length 3.937000
      axis 0.0 0.0 90.0 xyz
      dof rx rz ry
   end
   begin
      id 23
      name LeftShoulder
      direction 1.000000 0.000000 0.000000
      length 8.140465
      axis 0.0 0.0 -90.0 xyz
      dof rx ry rz
   end
   begin
      id 24
      name LeftArm
      direction 1.000000 0.000000 0.000000
      length 10.649840
      axis 0.0 0.0 -90.0 xyz
      dof rx ry rz
   end
   begin
      id 25
      name LeftForeArm
      direction 1.000000 0.000000 0.000000
      length 8.304624
      axis 0.0 0.0 -90.0 xyz
      dof ry rz rx
   end
   begin
      id 26
      name LeftHand
      direction 1.000000 0.000000 0.000000
      length 0.000000
      axis 0.0 0.0 -90.0 xyz
      dof rx ry rz
   end
   begin
      id 27
      name LeftHand_dum1
      direction 1.000000 0.000000 0.000000
      length 3.937000
      axis 0.0 0.0 -90.0 xyz
   end
   begin
      id 28
      name LeftHand_dum2
      direction 0.000000 0.000000 0.000000
      length 0.000000
      axis 0.0 0.0 -90.0 xyz
   end
   begin
      id 29
      name LeftHandThumb1
      direction 0.000000 0.000000 1.000000
      length 3.937000
      axis 0.0 0.0 -90.0 xyz
      dof rx rz ry
   end
   begin
      id 30
      name Head
      direction 0.000000 1.000000 0.000000
      length 4.527550
      axis 0.0 0.0 0.0 xyz
      dof rx ry rz
   end
:hierarchy
   begin
      root RightUpLeg_dum LeftUpLeg_dum Spine_dum
      RightUpLeg_dum RightUpLeg
      LeftUpLeg_dum LeftUpLeg
      Spine_dum Spine
      RightUpLeg RightLeg
      RightLeg RightFoot
      RightFoot RightToeBase
      LeftUpLeg LeftLeg
      LeftLeg LeftFoot
      LeftFoot LeftToeBase
      Spine Spine_dum1 Spine_dum2 Spine_dum3
      Spine_dum1 RightShoulder
      Spine_dum2 LeftShoulder
      Spine_dum3 Head
      RightShoulder RightArm
      RightArm RightForeArm
      RightForeArm RightHand
      RightHand RightHand_dum1 RightHand_dum2
      RightHand_dum2 RightHandThumb1
      LeftShoulder LeftArm
      LeftArm LeftForeArm
      LeftForeArm LeftHand
      LeftHand LeftHand_dum1 LeftHand_dum2
      LeftHand_dum2 LeftHandThumb1
   end

# File created by Blade
# Date/Time:  Wed Jan 21 19:08:52 2015
# Frame Rate: 120.000 fps
#------------------------------------------------------
:FULLY-SPECIFIED
:DEGREES
1708
root -3.289217 31.645918 -8.574094 51.556605 -16.919938 11.259712
RightUpLeg -42.983642 1.935075 7.957509
RightLeg -8.290976 -0.000000 0.000000
RightFoot -6.618146 9.116854 15.667259
RightToeBase 15.790195 -0.000000 -0.000000
LeftUpLeg -55.953016 -13.131235 -7.637743
LeftLeg 0.821758 -0.000000 -0.000000
LeftFoot -8.414098 6.559579 -6.539002
LeftToeBase 8.270613 -0.000000 -0.000000
Spine -38.775198 -25.605631 -26.992656
RightShoulder -27.464517 20.157580 -77.429490
RightArm -4.352171 -15.870429 7.588781
RightForeArm 29.663447 0.000000 -3.563512
RightHand 11.913515 -0.000000 4.537226
RightHandThumb1 -24.326973 -0.000000 -32.862282
LeftShoulder -8.771136 6.572239 1.413300
LeftArm 11.012045 10.288736 -74.782247
LeftForeArm 11.479383 -0.000000 3.266974
LeftHand -18.089992 0.000000 8.580511
LeftHandThumb1 -26.253704 0.000000 33.147579
Head -24.024427 12.442977 -43.088708
1709
root -3.275950 31.646885 -8.596096 51.584991 -16.966939 11.229022
RightUpLeg -43.053492 1.947662 7.985390
RightLeg -8.279243 -0.000000 0.000000
RightFoot -6.575879 9.120214 15.556136
RightToeBase 15.820647 -0.000000 -0.000000
LeftUpLeg -56.033748 -13.129203 -7.602785
LeftLeg 0.829771 -0.000000 -0.000000
LeftFoot -8.385213 6.631113 -6.488733
LeftToeBase 8.265868 -0.000000 -0.000000
Spine -38.730978 -25.611954 -26.989916
RightShoulder -27.480435 20.069034 -77.429067
RightArm -4.396914 -15.826360 7.640645
RightForeArm 29.700627 -0.000000 -3.689233
RightHand 11.860345 -0.000000 4.544741
RightHandThumb1 -24.326973 -0.000000 -32.862282
LeftShoulder -8.717828 6.570027 1.377791
LeftArm 11.175092 10.910497 -74.717524
LeftForeArm 11.329794 -0.000000 2.928046
LeftHand -17.946431 -0.000000 8.290673
LeftHandThumb1 -26.253704 0.000000 33.147579
Head -24.087066 12.459558 -43.244557
1710
root -3.263403 31.648218 -8.616566 51.597906 -17.025465 11.210835
RightUpLeg -43.104940 1.925881 8.027216
RightLeg -8.293891 -0.000000 0.000000
RightFoot -6.568157 9.192331 15.272500
RightToeBase 15.976490 -0.000000 -0.000000
LeftUpLeg -56.095866 -13.142701 -7.561762
LeftLeg 0.820939 -0.000000 -0.000000
LeftFoot -8.355487 6.732477 -6.506113
LeftToeBase 8.307920 -0.000000 -0.000000
Spine -38.676633 -25.624518 -27.010779
RightShoulder -27.540227 20.040662 -77.453624
RightArm -4.393104 -15.788688 7.685041
RightForeArm 29.651254 0.000000 -3.793414
RightHand 11.782333 -0.000000 4.437375
RightHandThumb1 -24.326973 -0.000000 -32.862282
LeftShoulder -8.690448 6.644494 1.344569
LeftArm 11.470421 11.685132 -74.602666
LeftForeArm 11.073571 -0.000000 2.505435
LeftHand -17.830101 -0.000000 7.957171
LeftHandThumb1 -26.253704 0.000000 33.147579
Head -24.160229 12.482614 -43.394590
1711
root -3.248275 31.653223 -8.636831 51.597638 -17.125007 11.247333
RightUpLeg -43.176825 1.927451 7.959998
RightLeg -8.274505 -0.000000 0.000000
RightFoot -6.538748 9.180165 15.108656
RightToeBase 15.960028 -0.000000 -0.000000
LeftUpLeg -56.195854 -13.270127 -7.445858
LeftLeg 0.837231 -0.000000 -0.000000
LeftFoot -8.300526 6.990977 -6.600471
LeftToeBase 8.263807 -0.000000 -0.000000
Spine -38.609266 -25.681968 -27.070447
RightShoulder -27.635799 20.098211 -77.503693
RightArm -4.380268 -15.779515 7.728728
RightForeArm 29.688748 -0.000000 -3.904482
RightHand 12.174105 0.000000 3.772157
RightHandThumb1 -24.326973 -0.000000 -32.862282
LeftShoulder -8.687206 6.659340 1.294254
LeftArm 11.703361 12.443661 -74.470063
LeftForeArm 10.760390 0.000000 2.077967
LeftHand -17.599088 -0.000000 7.922498
LeftHandThumb1 -26.253704 0.000000 33.147579
Head -24.300727 12.493611 -43.539547
1712
root -3.231442 31.656010 -8.655178 51.590783 -17.218960 11.247761
RightUpLeg -43.218021 1.929031 7.935162
RightLeg -8.272191 -0.000000 0.000000
RightFoot -6.499345 9.207007 15.016601
RightToeBase 16.016869 -0.000000 -0.000000
LeftUpLeg -56.257070 -13.321532 -7.390235
LeftLeg 0.838083 -0.000000 -0.000000
LeftFoot -8.276373 7.161048 -6.606637
LeftToeBase 8.351852 -0.000000 -0.000000
Spine -38.549895 -25.704116 -27.084574
RightShoulder -27.733271 20.139704 -77.541140
RightArm -4.337981 -15.750903 7.746868
RightForeArm 29.584241 -0.000000 -4.000693
RightHand 11.795946 -0.000000 4.289458
RightHandThumb1 -24.326973 -0.000000 -32.862282
LeftShoulder -8.684327 6.681336 1.216863
LeftArm 11.918275 13.078222 -74.340676
LeftForeArm 10.570096 0.000000 1.689207
LeftHand -17.423098 -0.000000 7.528524
LeftHandThumb1 -26.253704 0.000000 33.147579
Head -24.427279 12.510351 -43.704019
1713
root -3.216714 31.657285 -8.673997 51.583928 -17.289253 11.216351
RightUpLeg -43.248725 1.929374 7.964085
RightLeg -8.262484 -0.000000 0.000000
RightFoot -6.438979 9.241123 14.882332
RightToeBase 15.963222 -0.000000 -0.000000
LeftUpLeg -56.294073 -13.301364 -7.371166
LeftLeg 0.831587 -0.000000 -0.000000
LeftFoot -8.218725 7.218207 -6.610704
LeftToeBase 8.241205 -0.000000 -0.000000
Spine -38.511397 -25.719831 -27.052602
RightShoulder -27.788070 20.160003 -77.570534
RightArm -4.284652 -15.688098 7.789799
RightForeArm 29.562676 -0.000000 -4.134499
RightHand 11.758369 -0.000000 4.431729
RightHandThumb1 -24.326973 -0.000000 -32.862282
LeftShoulder -8.664228 6.679092 1.159623
LeftArm 12.119838 13.877979 -74.199549
LeftForeArm 10.356893 -0.000000 1.239264
LeftHand -17.199218 0.000000 7.085884
LeftHandThumb1 -26.253704 0.000000 33.147579
Head -24.502538 12.497518 -43.844700
1714
root -3.200872 31.659141 -8.693094 51.572914 -17.383185 11.186632
RightUpLeg -43.279492 1.953518 7.958214
RightLeg -8.248814 -0.000000 0.000000
RightFoot -6.387291 9.263668 14.795717
RightToeBase 15.923211 -0.000000 -0.000000
LeftUpLeg -56.341047 -13.267357 -7.379257
LeftLeg 0.861577 -0.000000 -0.000000
LeftFoot -8.191676 7.275900 -6.582598
LeftToeBase 8.221925 -0.000000 -0.000000
Spine -38.489375 -25.732817 -27.029560
RightShoulder -27.822904 20.157989 -77.584364
RightArm -4.224239 -15.611438 7.846644
RightForeArm 29.604813 -0.000000 -4.249058
RightHand 11.755325 -0.000000 4.457423
RightHandThumb1 -24.326973 -0.000000 -32.862282
LeftShoulder -8.597096 6.680955 1.121638
LeftArm 12.240085 14.488686 -74.104787
LeftForeArm 10.137391 -0.000000 0.874800
LeftHand -16.981916 -0.000000 6.502774
LeftHandThumb1 -26.253704 0.000000 33.147579
Head -24.562121 12.521515 -43.985954
1715
root -3.185018 31.661403 -8.712322 51.544292 -17.487908 11.159571
RightUpLeg -43.298591 1.985047 7.937043
RightLeg -8.228538 -0.000000 0.000000
RightFoot -6.355010 9.279388 14.745069
RightToeBase 15.949094 -0.000000 -0.000000
LeftUpLeg -56.371854 -13.240181 -7.384538
LeftLeg 0.886366 -0.000000 -0.000000
LeftFoot -8.196237 7.346968 -6.640743
LeftToeBase 8.267499 -0.000000 -0.000000
Spine -38.456293 -25.759816 -27.015404
RightShoulder -27.837540 20.180346 -77.534538
RightArm -4.165673 -15.551519 7.853927
RightForeArm 29.612769 0.000000 -4.329669
RightHand 11.728695 -0.000000 4.535193
RightHandThumb1 -24.326973 -0.000000 -32.862282
LeftShoulder -8.560557 6.653232 1.099969
LeftArm 12.350518 15.115949 -74.023029
LeftForeArm 9.866420 -0.000000 0.463850
LeftHand -16.682601 0.000000 6.192057
LeftHandThumb1 -26.253704 0.000000 33.147579
Head -24.638178 12.572802 -44.108800
1716
root -3.170638 31.663223 -8.729363 51.518186 -17.597106 11.136855
RightUpLeg -43.314929 1.992102 7.938126
RightLeg -8.207014 -0.000000 0.000000
RightFoot -6.311899 9.319639 14.630952
RightToeBase 15.883180 -0.000000 -0.000000
LeftUpLeg -56.396314 -13.209703 -7.406581
LeftLeg 0.908302 -0.000000 -0.000000
LeftFoot -8.195255 7.429010 -6.603375
LeftToeBase 8.300910 -0.000000 -0.000000
Spine -38.446384 -25.775038 -26.996046
RightShoulder -27.835417 20.238067 -77.539430
RightArm -4.133112 -15.513728 7.885542
RightForeArm 29.645590 0.000000 -4.375290
RightHand 11.641991 -0.000000 4.504323
RightHandThumb1 -24.326973 -0.000000 -32.862282
LeftShoulder -8.501677 6.667217 1.072095
LeftArm 12.450151 15.619459 -73.945304
LeftForeArm 9.625747 0.000000 0.127176
LeftHand -16.437781 0.000000 5.573421
LeftHandThumb1 -26.253704 0.000000 33.147579
Head -24.651044 12.588806 -44.219472
1717
root -3.152261 31.664051 -8.747558 51.492661 -17.718566 11.096941
RightUpLeg -43.333839 2.018893 7.928719
RightLeg -8.176991 -0.000000 0.000000
RightFoot -6.248809 9.402645 14.752779
RightToeBase 15.821865 -0.000000 -0.000000
LeftUpLeg -56.475847 -13.059226 -7.548177
LeftLeg 1.119665 -0.000000 -0.000000
LeftFoot -8.293761 7.224516 -6.704081
LeftToeBase 8.338303 -0.000000 -0.000000
Spine -38.427602 -25.771853 -26.956799
RightShoulder -27.894305 20.291177 -77.546334
RightArm -4.014644 -15.534977 7.906978
RightForeArm 29.855044 -0.000000 -4.468183
RightHand 12.116006 -0.000000 4.123901
RightHandThumb1 -24.326973 -0.000000 -32.862282
LeftShoulder -8.484476 6.646326 1.036845
LeftArm 12.512582 16.052993 -73.892925
LeftForeArm 9.505397 0.000000 -0.121404
LeftHand -16.265948 -0.000000 5.065294
LeftHandThumb1 -26.253704 0.000000 33.147579
Head -24.725148 12.619019 -44.357769
1718
root -3.136963 31.664921 -8.763191 51.446726 -17.846585 11.067976
RightUpLeg -43.329471 2.041971 7.908184
RightLeg -8.153269 -0.000000 0.000000
RightFoot -6.276777 9.454435 14.599364
RightToeBase 15.854931 -0.000000 -0.000000
LeftUpLeg -56.473361 -13.000987 -7.609987
LeftLeg 1.140044 -0.000000 -0.000000
LeftFoot -8.280783 7.317168 -6.613571
LeftToeBase 8.291730 -0.000000 -0.000000
Spine -38.433914 -25.793186 -26.929907
RightShoulder -27.849396 20.374545 -77.493471
RightArm -3.974965 -15.476438 7.896695
RightForeArm 29.703228 -0.000000 -4.447013
RightHand 11.665994 0.000000 4.675270
RightHandThumb1 -24.326973 -0.000000 -32.862282
LeftShoulder -8.461057 6.678478 1.032162
LeftArm 12.602801 16.492205 -73.849367
LeftForeArm 9.234489 -0.000000 -0.419755
LeftHand -16.097007 -0.000000 4.601769
LeftHandThumb1 -26.253704 0.000000 33.147579
Head -24.720370 12.686385 -44.443442
1719
root -3.124255 31.667416 -8.778352 51.385890 -17.976538 11.050771
RightUpLeg -43.312371 2.068643 7.870966
RightLeg -8.126003 -0.000000 0.000000
RightFoot -6.271240 9.517073 14.721582
RightToeBase 15.915750 -0.000000 -0.000000
LeftUpLeg -56.438700 -12.970720 -7.643963
LeftLeg 1.099724 -0.000000 -0.000000
LeftFoot -8.221181 7.471232 -6.576256
LeftToeBase 8.293482 -0.000000 -0.000000
Spine -38.409060 -25.811063 -26.926675
RightShoulder -27.846786 20.444504 -77.464976
RightArm -3.910573 -15.468131 7.911113
RightForeArm 29.587069 0.000000 -4.433046
RightHand 11.527038 0.000000 4.571332
RightHandThumb1 -24.326973 -0.000000 -32.862282
LeftShoulder -8.449014 6.670563 1.023686
LeftArm 12.655435 16.843866 -73.803982
LeftForeArm 9.022636 -0.000000 -0.677952
LeftHand -15.925819 0.000000 4.109417
LeftHandThumb1 -26.253704 0.000000 33.147579
Head -24.748177 12.711604 -44.536592
1720
root -3.111483 31.670143 -8.794444 51.315703 -18.123840 11.028736
RightUpLeg -43.298499 2.075368 7.851741
RightLeg -8.074115 -0.000000 0.000000
RightFoot -6.243356 9.636873 14.851116
RightToeBase 15.829781 -0.000000 -0.000000
LeftUpLeg -56.406026 -12.930837 -7.686659
LeftLeg 1.079758 -0.000000 -0.000000
LeftFoot -8.146679 7.655743 -6.390964
LeftToeBase 8.185487 -0.000000 -0.000000
Spine -38.375652 -25.812413 -26.936932
RightShoulder -27.858226 20.501811 -77.436148
RightArm -3.834190 -15.431019 7.921836
RightForeArm 29.547702 -0.000000 -4.383924
RightHand 11.447234 -0.000000 4.631028
RightHandThumb1 -24.326973 -0.000000 -32.862282
LeftShoulder -8.438526 6.669349 1.028321
LeftArm 12.700710 17.101266 -73.776158
LeftForeArm 8.887556 0.000000 -0.890282
LeftHand -15.803254 -0.000000 3.554057
LeftHandThumb1 -26.253704 0.000000 33.147579
Head -24.778874 12.752939 -44.620535
